<?xml version="1.0" encoding="UTF-8" standalone="no"?>
<svg width="512" height="512" viewBox="0 0 512 512" fill="none" xmlns="http://www.w3.org/2000/svg">
  <rect width="512" height="512" fill="#000000"/>
  <g transform="translate(18, 18) scale(0.93)">
    <!-- Diamond pattern based on the provided image -->
    <!-- Top row -->
    <rect x="128" y="18" width="100" height="100" transform="rotate(45 128 18)" fill="#d4e21b"/>
    <rect x="384" y="18" width="100" height="100" transform="rotate(45 384 18)" fill="#d4e21b"/>
    
    <!-- Middle top row -->
    <rect x="18" y="128" width="100" height="100" transform="rotate(45 18 128)" fill="#d4e21b"/>
    <rect x="256" y="128" width="100" height="100" transform="rotate(45 256 128)" fill="#d4e21b"/>
    <rect x="494" y="128" width="100" height="100" transform="rotate(45 494 128)" fill="#d4e21b"/>
    
    <!-- Center -->
    <rect x="256" y="256" width="100" height="100" transform="rotate(45 256 256)" fill="#d4e21b"/>
    
    <!-- Middle bottom row -->
    <rect x="18" y="384" width="100" height="100" transform="rotate(45 18 384)" fill="#d4e21b"/>
    <rect x="256" y="384" width="100" height="100" transform="rotate(45 256 384)" fill="#d4e21b"/>
    <rect x="494" y="384" width="100" height="100" transform="rotate(45 494 384)" fill="#d4e21b"/>
    
    <!-- Bottom row -->
    <rect x="128" y="494" width="100" height="100" transform="rotate(45 128 494)" fill="#d4e21b"/>
    <rect x="384" y="494" width="100" height="100" transform="rotate(45 384 494)" fill="#d4e21b"/>
  </g>
</svg>